<?xml version="1.0" encoding="utf-8"?>
<!-- Generator: Adobe Illustrator 22.0.1, SVG Export Plug-In . SVG Version: 6.00 Build 0)  -->
<svg version="1.1" id="Layer_1" xmlns="http://www.w3.org/2000/svg" xmlns:xlink="http://www.w3.org/1999/xlink" x="0px" y="0px"
	 viewBox="0 0 1920 1080" style="enable-background:new 0 0 1920 1080;" xml:space="preserve">
<g>
	<path d="M779.8,598.2h12v-89.4h-12.5V506h27.9c12.8,0,21.8,0.8,26.9,2.6c11.4,3.8,17.1,10.6,17.1,20.5c0,6.2-2.7,11.4-8.1,15.6
		c-4.7,3.6-10.2,5.9-16.8,6.6c7.9,0.5,14.5,2.7,19.7,6.5c6.1,4.3,9,10.2,9,17.8c0,7.9-3.2,14.4-9.8,19.1c-3.9,2.8-8.8,4.7-14.5,5.7
		c-3.5,0.5-8.8,0.8-15.6,0.8H780v-3H779.8z M806.1,508.8v41.3h3.5c9.3,0,15.8-1.1,19.1-3.1c4.4-2.8,6.7-8.8,6.7-17.5
		s-2.3-14.5-6.7-17.4c-3.5-2.3-9.8-3.4-18.8-3.4h-3.8V508.8z M806.1,598.2h5c8.5,0,13.9-0.4,16-1.2c7.1-2.7,10.8-9.7,10.8-21.1
		c0-10.6-2.8-17.5-8.6-20.3c-3.4-1.8-11.2-2.6-23.2-2.6V598.2z"/>
	<path d="M913,582.5c-0.8,5.8-3.4,10.5-7.8,14.4c-4.4,3.8-9.4,5.7-15.2,5.7c-7.7,0-14.1-2.8-19.5-8.6s-8.1-12.7-8.1-20.3
		c0-7.7,2.6-14.5,7.8-20.6s11.7-9.2,19.3-9.2c7.1,0,12.9,2.4,17.4,7.1c4.4,4.7,7,10.6,7.4,17.8h-37v10.4c0,6.3,0.7,10.9,1.9,13.7
		c2,4.4,5.8,6.7,11.4,6.7c4.7,0,8.9-1.6,12.5-5s5.9-7.4,6.7-12.1L913,582.5L913,582.5z M899.3,560.1c0-8.7-3.5-13.2-10.5-13.2
		c-5.2,0-8.8,2.2-10.4,6.3c-0.7,2-1.2,6.2-1.3,12.8h22.2V560.1z"/>
	<path d="M922.8,601h-1.9v-21.1h2.4c2,6.5,3.9,10.9,5.8,13.3c3,3.9,7.1,5.9,12.7,5.9c6.5,0,12.8-4.3,12.8-10.6
		c0-4.2-2.8-6.9-8.6-8.3c-10.5-2.6-15.8-3.8-15.9-3.9c-5.8-2.6-8.6-7.5-8.6-14.7c0-5,1.6-9.2,4.8-12.5c3.2-3.4,7.3-5.1,12.1-5.1
		c5.1,0,9.7,1.7,13.7,5.2l2.4-4.4h2.3v16.7h-2.6c-1.2-8.2-7.8-14.1-16-14.1c-2.8,0-5.5,0.9-7.9,2.7c-2.7,1.9-4,4.2-4,7
		c0,3.4,3,5.8,8.8,7.1c9.3,2,14.5,3.5,16,4.2c5.8,2.8,8.8,7.9,8.8,15.3c0,5.2-1.7,9.8-5.2,13.5c-3.4,3.6-7.8,5.5-13.1,5.5
		s-10.4-2-15.3-6.1L922.8,601z"/>
	<path d="M1000,548.3h-14.4v41.1c0,5.9,2.2,8.9,6.6,8.9c4.4,0,7.1-2.6,8.1-7.7h3c-1.6,7.9-6.6,12-15.1,12c-6.5,0-10.8-2-12.9-5.9
		c-1.5-2.6-2.2-7.4-2.2-14.4v-33.9h-8.8v-1.9c4.3-1.9,8.3-5.1,12-9.6c3.8-4.4,6.2-9,7.3-13.7h2v22.3h14.4L1000,548.3L1000,548.3z"/>
	<path d="M1048.6,555.7v9.6h-37.7v-9.6H1048.6z"/>
	<path d="M1132.2,571.6l-2.6,29.3h-71.2v-2.8h12.1v-89.4h-12.1v-2.8h39.2v2.8h-11.4v89.4h17.1c5,0,8.5-0.3,10.6-0.8
		c3.4-0.9,6.3-2.8,8.8-5.9c2.4-3.1,4.8-9.7,7.3-19.8H1132.2z"/>
	<path d="M1186.7,594c-5.5,5.8-12.3,8.6-20.2,8.6c-7.9,0-14.8-2.8-20.5-8.6s-8.5-12.7-8.5-20.6c0-8.1,2.8-14.9,8.3-20.7
		c5.7-5.8,12.5-8.8,20.6-8.8c7.9,0,14.7,3,20.2,8.8s8.2,12.7,8.2,20.6C1194.9,581.2,1192.2,588.2,1186.7,594z M1153.3,557.4
		c-0.5,2.3-0.8,8.5-0.8,18.8c0,7.4,0.5,12.7,1.7,15.6c1.9,5.1,5.9,7.7,12.3,7.7c6.6,0,10.6-3.1,12.3-9.4c0.7-2.3,0.9-8.1,0.9-17.4
		c0-8.8-0.3-14.4-0.9-16.8c-1.8-5.9-5.8-8.9-12.1-8.9C1159.5,547,1155,550.5,1153.3,557.4z"/>
	<path d="M1252.4,601.2c3,2.3,4.4,6.3,4.4,12c0,8.2-3,14.8-8.9,19.8c-5.5,4.7-12.4,7.1-20.9,7.1c-6.1,0-11.6-1.3-16.6-4
		c-6.2-3.4-9.3-7.7-9.3-13.2c0-3.1,1.1-5.8,3.4-8.2c2-2.2,4.6-3.6,7.7-4.6c-7.1-2.3-10.6-6.5-10.6-12.5c0-6.5,4.2-12.3,12.7-17.4
		c-5.9-4-8.9-9.6-8.9-16.4c0-6.1,2.3-11,7-14.7c4.3-3.4,9.6-5.1,15.9-5.1c6.2,0,11.4,2,15.9,5.9c3.5-3.5,6.9-5.2,10.1-5.2
		c3.6,0,6.9,2.3,6.9,5.9c0,2.8-2.4,5.2-5.3,5.2c-2.3,0-3.9-1.1-4.6-3.2c-0.7-2.2-1.3-3.2-2-3.2s-1.8,0.8-3.2,2.3
		c3.1,3.9,4.6,8.1,4.6,12.8c0,6.1-2.4,10.9-7.1,14.5c-4.3,3.4-9.6,5-15.7,5c-4.3,0-7.9-0.8-10.9-2.4c-6.3,4.8-9.4,8.8-9.4,11.6
		c0,2.6,1.3,4.2,4,4.8c1.2,0.3,3.6,0.4,7.1,0.4l21.4-0.1C1245.6,598.3,1249.8,599.2,1252.4,601.2z M1214.7,610.7
		c-3.1,3.4-4.7,7-4.7,10.9c0,9.3,7.5,14.9,17.1,14.9c6.5,0,12.1-1.6,17-5c5.5-3.8,8.3-8.8,8.3-14.9c0-2.6-0.8-4.3-2.3-5.1
		c-1.1-0.7-3-1.1-5.8-1.1c-2.2,0-5.4,0.1-9.6,0.3c-4.2,0.3-7.4,0.4-9.4,0.4C1221.5,611.1,1218.1,610.9,1214.7,610.7z M1235.7,549.8
		c-1.2-2.2-3.8-3.2-7.5-3.2c-4.4,0-7.3,1.8-8.5,5.4c-0.5,1.8-0.8,5.5-0.8,11v4.7c0,4.6,0.4,7.7,1.1,9.3c1.2,2.8,3.8,4.3,7.8,4.3
		c4.7,0,7.7-2.2,8.8-6.3c0.3-1.2,0.4-5.2,0.5-12.3v-4.6C1237.2,554.1,1236.6,551.3,1235.7,549.8z"/>
	<path d="M1335,508.8h-11.2v89.4h12v2.8h-39.3v-2.8h12.1v-89.4h-12.3V506h38.6v2.8H1335z M1367.9,508.8l-30.3,34.2l41.1,55.2h6.7
		v2.8H1348v-2.8h12.1l-34.7-46.7l38-42.7h-13.9V506h30.4v2.8H1367.9z"/>
	<path d="M1426,548.2h-12.9v49.9h11.7v2.8h-36.1v-2.8h11.8v-49.9h-11.4v-2.8h11.4c0-1.2,0-3-0.1-5.4v-5.5c0-10.8,2.3-18.7,6.9-23.7
		c3.9-4.2,8.5-6.3,13.9-6.3c3.1,0,5.9,0.8,8.3,2.3c2.8,1.8,4.2,4.2,4.2,7.1c0,3.6-2.6,6.6-5.9,6.6c-3.2,0-5.7-2.8-5.7-6.1
		c0-2.3,0.9-4.3,2.8-6.2c-1.1-1.2-2.4-1.8-4.2-1.8c-5.3,0-7.8,3.9-7.8,11.6v27.3h13.1L1426,548.2L1426,548.2z"/>
	<path d="M1467.6,548.3h-14.4v41.1c0,5.9,2.2,8.9,6.6,8.9s7.1-2.6,8.1-7.7h3c-1.6,7.9-6.6,12-15.1,12c-6.5,0-10.8-2-12.9-5.9
		c-1.5-2.6-2.2-7.4-2.2-14.4v-33.9h-8.8v-1.9c4.3-1.9,8.3-5.1,12-9.6c3.8-4.4,6.2-9,7.3-13.7h2v22.3h14.4V548.3z"/>
	<path d="M1488.9,585.1c4.4,0,8.3,3.9,8.3,8.3s-3.9,8.3-8.3,8.3s-8.3-3.9-8.3-8.3S1484.5,585.1,1488.9,585.1z"/>
</g>
<g>
	<polygon points="567.4,490.8 565.4,491.9 558.3,492.1 562.2,492.8 569,492.5 571.4,491.4 	"/>
	<path d="M576.9,494l2.6-1.1c-1.3-0.2-2.6-0.5-4-0.7c-0.7,0.4-1.4,0.7-2.1,1.1c-2.3,0.1-4.8,0.2-7.2,0.3c1.4,0.2,2.6,0.5,3.9,0.7
		L576.9,494z"/>
	<path d="M584.6,495.5c0.9-0.4,1.9-0.8,2.7-1.1l-4-0.8l-2.3,1.2l-7.2,0.2l3.9,0.8C580.1,495.7,582.3,495.6,584.6,495.5z"/>
	<path d="M536.3,491.8c-1.4-0.2-2.8-0.4-4-0.6l0,0c-3.3-0.1-7.1-0.2-11.6-0.2c-5.2,0-9.9,0.1-13.8,0.2l0,0l7.1,1l0,0
		c3.9-0.1,8.4-0.1,13.3-0.1c4.6,0,9.3,0.2,12.8,0.3l0,0C538.9,492.2,537.6,492,536.3,491.8z"/>
	<path d="M542,492.8L542,492.8c-3.3-0.1-7.1-0.3-11.6-0.3c-5.3,0-10,0-13.8,0.1l0,0l7,1.1l0,0c3.9,0,8.4-0.1,13.3,0
		c2.3,0,4.6,0.1,6.9,0.2c2.2,0.1,4.2,0.2,6,0.3l0,0C547.5,493.7,544.4,493.1,542,492.8z"/>
	<path d="M551.6,494.4L551.6,494.4c-3.3-0.2-7.1-0.3-11.6-0.4c-5.3-0.1-10,0-13.9,0l0,0l6.9,1.2l0,0c4,0,8.4,0,13.4,0.1
		c4.6,0.1,9.4,0.3,12.8,0.5l0,0C557,495.4,553.9,494.9,551.6,494.4z"/>
	<path d="M561,496.3L561,496.3c-3.3-0.2-7-0.4-11.7-0.5c-5.3-0.1-10-0.1-13.9,0l0,0l6.7,1.3l0,0c4.1,0,8.5,0,13.4,0.2
		c4.5,0.1,9.4,0.4,12.8,0.6l0,0C566.3,497.3,563.2,496.7,561,496.3z"/>
	<path d="M710.6,599.6l0.6-2.5l0.2-2.5l0.3-4.8l0.6-9.1l-1.1-8.4c-0.4-2.7-0.5-5.3-1.6-7.8l-2.6-7.3l-0.6-1.7l-1-1.7l-1.9-3.3
		l-1.9-3.2l-0.9-1.6l-1.3-1.5l-4.9-5.8c-7-7.2-15.2-13.7-25.8-19.5c-9.8-5.4-21.2-10.1-34-14.4c-11.9-4-25.3-7.4-40-10.4
		c-7.5-1.5-15.4-2.9-23.6-4.2H582l0.1,0.1l0,0c2.5,0.4,5.9,1,8.2,1.4l0,0c-0.3-0.5-1.2-1-1.7-1.5h2.1c0.3,0.7,0.8,1.4,1.5,1.9l0,0
		c2.4,0.5,5.7,1,8.1,1.5l0,0c-0.4-0.7-1.7-1.5-1.8-2.3c-0.1-0.4,0-0.8,0-1.2h2.7c-0.3,0.5-0.5,1.1-0.3,1.7c0.1,0.4,0.3,0.8,0.5,1.1
		c0.2,0.4,0.4,0.7,0.7,1c2.4,0.5,5.5,1.2,7.9,1.7c-0.5-0.7-1.5-1.6-1.5-2.4c0-0.4,0.1-0.9,0.3-1.3c0.1-0.4,0.2-0.8,0.5-1.1l-4.1-0.7
		h2.3c-0.8,0.1,23-6,42.7-19.9c4.8-3.4,7.9-6.2,9.7-7.9c2.4-2.3,8.7-8.8,13.8-17.4c6.1-10.2,9.2-22.3,9.2-36.2
		c0-18.2-4.4-33.2-13.1-45.1c-8.8-11.9-21.8-20.9-39.2-27s-38.9-9.2-64.7-9.2H396.4v5l30.2,7.4v326.3l-30.2,7.4v3.4h87.2l0,0h30.2
		c0-1.2,0-2.4,0-3.5c-10-2.4-20.2-5-30.2-7.4c0,0.5,0,1,0,1.5l-0.2-177.4h15.2l5.6,1l0,0c3.9-0.1,8.3-0.1,13.2-0.1
		c4.6,0,9.3,0.2,12.8,0.3l0,0c-2.3-0.4-5.3-0.8-7.8-1.1h11.1c14.4,2.1,28.1,4.4,40.7,7.2c13.9,3,26.4,6.5,37.4,10.5
		c11.8,4.2,22.2,9,31,14.4c9.4,5.7,16.5,12.2,22.4,19.4l3.9,5.8l1,1.5l0.7,1.6l1.4,3.2l1.4,3.3l0.7,1.7l0.4,1.7l1.5,7.2
		c0.8,2.5,0.5,5.1,0.5,7.8v8.3l-1.8,9L674,597l-0.5,2.4l-0.9,2.5c-4.7,14.1-12.1,29.7-23.7,47c-26.8,40.9-74.4,92.7-147.4,159.1
		l11.8,0.7c71.9-66.9,118.5-119.1,144.5-160.1c11.2-17.5,18.3-33.1,22.6-47.2l0.9-2.5l0.4-2.4l0.8-4.7l1.5-9l-0.2-8.3
		c-0.1-2.7,0.1-5.3-0.8-7.8l-1.7-7.2l-0.4-1.7L680,556l-1.5-3.3l-1.5-3.2l-0.7-1.6l-1.1-1.5l-4.1-5.8c-6.1-7.2-13.4-13.7-23-19.4
		c-9-5.4-19.6-10.1-31.6-14.4c-11.2-4-23.9-7.5-37.9-10.5c-11.6-2.5-24.1-4.7-37.1-6.6h2.3l2.6,0.4l6.6-0.3h0.1h2.6h3l-1.3,0.7
		l-7,0.3l4,0.6l6.8-0.3l2.2-1l-1.9-0.3h2.2c9.3,1.5,18.4,3.1,26.9,4.8c14.5,3,27.7,6.5,39.5,10.4c12.5,4.2,23.7,9,33.3,14.4
		c10.3,5.7,18.3,12.3,25.1,19.4l4.7,5.8l1.2,1.5l0.9,1.6l1.8,3.2l1.8,3.3l0.9,1.7l0.6,1.7l2.3,7.3c1,2.5,1.1,5.1,1.4,7.8l0.9,8.4
		l-0.8,9.1l-0.4,4.8l-0.2,2.5l-0.7,2.5c-3.3,14.2-9.3,30.1-19.3,47.7c-23.3,41.7-67,94.7-135.7,163l12.2,0.7
		c67.5-68.8,110.2-122.2,132.6-164C702.1,629.8,707.7,613.9,710.6,599.6z M483.7,338.4c7.3-1.3,16.7-2.2,28.3-2.7s25.5-0.7,41.7-0.7
		c26.1,0,45.8,6.3,59,18.8c13.2,12.6,19.8,30.7,19.8,54.5c0,16.2-2.9,30.4-8.7,42.6s-13.6,23.9-26.3,28.5
		c-14.6,5.3-14.8,4.8-46.8,4.9h-4.8h-6.5h-55.7V338.4z"/>
	<path d="M595.5,498c1-0.4,2-0.8,2.9-1.2l-3.9-0.8l-2.5,1.2l-7.3,0.2l3.8,0.8C590.9,498.1,593.2,498,595.5,498z"/>
	<polygon points="602.8,499.8 605.8,498.6 602.1,497.7 599.4,498.9 592.1,499.1 595.7,500 	"/>
	<path d="M609.8,501.8l3.3-1.3c-1.2-0.3-2.3-0.7-3.5-1c-0.9,0.4-1.9,0.9-2.9,1.3c-2.5,0-4.8,0.1-7.4,0.1c1.2,0.3,2.3,0.7,3.4,1
		L609.8,501.8z"/>
	<path d="M616.8,503.8c1.2-0.4,2.3-0.9,3.4-1.3l-3.6-1l-3,1.3l-7.5,0.1l3.5,1C612.1,503.9,614.4,503.9,616.8,503.8z"/>
	<polygon points="623.4,506 627,504.7 623.6,503.6 620.4,505 612.9,505 616.2,506.1 	"/>
	<path d="M629.9,508.4l3.8-1.4c-1-0.4-2.1-0.8-3.3-1.2c-1.1,0.5-2.1,0.9-3.3,1.4c-2.5,0-5.1,0-7.6,0c1.2,0.4,2.2,0.8,3.2,1.2H629.9z
		"/>
	<polygon points="636.2,510.8 640.1,509.4 636.9,508.2 633.3,509.7 625.7,509.6 628.8,510.8 	"/>
	<polygon points="642.2,513.4 646.3,512 643.3,510.7 639.5,512.2 631.9,512.1 634.7,513.4 	"/>
	<path d="M648,516.2l4.4-1.5c-0.9-0.5-2-0.9-3-1.4l-3.9,1.5l-7.8-0.1c1,0.5,2,0.9,2.9,1.4L648,516.2z"/>
	<polygon points="653.5,519.1 658,517.6 655.2,516.1 651,517.7 643.2,517.6 645.9,519 	"/>
	<polygon points="658.7,522.2 663.5,520.6 660.9,519.1 656.4,520.7 648.7,520.5 651.1,522.1 	"/>
	<path d="M663.8,525.5c1.8-0.6,3.3-1.1,4.9-1.6l-2.6-1.6l-4.6,1.7l-7.9-0.3l2.5,1.6C658.6,525.3,661.3,525.4,663.8,525.5z"/>
	<polygon points="668.3,528.9 673.5,527.3 671.2,525.5 666.3,527.3 658.4,526.9 660.6,528.7 	"/>
	<polygon points="672.7,532.6 678.3,530.8 675.9,529 670.8,530.8 662.8,530.4 665,532.2 	"/>
	<polygon points="676.6,536.4 682.3,534.6 680.3,532.7 674.9,534.6 666.9,534.1 668.7,536 	"/>
	<path d="M680.3,540.5l6.1-1.8c-0.5-0.7-1.3-1.4-2-2l-5.5,1.9l-8.2-0.5c0.6,0.7,1.4,1.3,1.8,2L680.3,540.5z"/>
	<polygon points="683.5,544.8 689.7,542.9 688,540.7 682.1,542.7 674,542.1 675.5,544.2 	"/>
	<path d="M686.4,549.3l6.6-2c-0.3-0.8-1-1.5-1.6-2.3l-6,2l-8.3-0.7c0.5,0.7,1.1,1.5,1.4,2.2L686.4,549.3z"/>
	<polygon points="688.8,554 695.6,552 694.3,549.6 687.8,551.8 679.6,551 680.7,553.4 	"/>
	<path d="M690.9,559.1l7.2-2.1c-0.2-0.9-0.8-1.7-1.2-2.5l-6.6,2.2l-8.4-0.8c0.3,0.8,0.9,1.6,1,2.5L690.9,559.1z"/>
	<polygon points="692.4,564.4 699.8,562.2 698.9,559.6 691.8,561.9 683.5,560.9 684.2,563.5 	"/>
	<polygon points="693.3,567.3 684.8,566.3 685.5,569 693.6,570 701.5,567.7 700.6,565 	"/>
	<polygon points="693.9,573.1 685.6,571.9 685.7,574.9 694,575.9 702.1,573.6 701.8,570.7 	"/>
	<polygon points="694.3,579.2 685.8,577.9 685.9,581 694.4,582.1 702.7,579.8 702.4,576.7 	"/>
	<polygon points="685.8,584.2 685.2,587.5 693.5,588.7 702.4,586.3 702.7,583 694.1,585.6 	"/>
	<polygon points="701.7,593.2 702,589.7 693.2,592.4 684.7,590.9 684.1,594.3 692.6,595.7 	"/>
	<path d="M682.4,601.5l8.4,1.5l9.7-2.6c0.3-1.2,0.9-2.5,0.9-3.7c-3,0.9-6.1,1.9-9.3,2.8c-2.8-0.6-5.5-1.1-8.5-1.7
		C683.5,599.1,682.8,600.3,682.4,601.5z"/>
	<polygon points="679.8,609.2 688.4,610.9 698.3,608.2 699.4,604.3 689.7,607.2 681.2,605.3 	"/>
	<path d="M677.1,617.3c3,0.6,5.7,1.2,8.5,1.9c3.5-0.9,7.1-1.9,10.5-2.8l1.2-4.1l-10,3l-8.7-2L677.1,617.3z"/>
	<polygon points="672.8,625.9 681.4,627.9 692.3,625 694.2,620.6 683.5,623.7 675,621.5 	"/>
	<polygon points="668.2,634.9 676.9,637.2 688.2,634.2 690.2,629.5 679.2,632.8 670.6,630.4 	"/>
	<path d="M662.9,644.6l8.5,2.4l12-3.1c1-1.7,2.1-3.3,2.7-4.9c-3.8,1.1-7.6,2.2-11.6,3.4c-2.7-0.9-5.7-1.8-8.6-2.6
		C665.1,641.3,663.9,642.9,662.9,644.6z"/>
	<polygon points="656.1,654.8 664.7,657.5 677.1,654.2 680.3,649 668,652.5 659.5,649.6 	"/>
	<polygon points="649,665.7 657.8,668.6 670.5,665.2 673.9,659.6 661.2,663.3 652.6,660.2 	"/>
	<polygon points="640.4,677.2 648.9,680.4 662.5,676.9 666.9,670.9 653.3,674.8 645.1,671.4 	"/>
	<polygon points="630.6,689.5 639.2,693 653.3,689.3 658,683 644,687 635.6,683.3 	"/>
	<path d="M620.2,702.7c2.8,1.2,5.9,2.5,8.6,3.8c5.1-1.3,9.8-2.5,14.7-3.8l5-6.7l-14.5,4l-8.5-4L620.2,702.7z"/>
	<polygon points="607.7,716.7 616,720.8 631.6,716.8 637.8,709.6 622.2,714 614.2,709.6 	"/>
	<polygon points="593.9,731.7 602.3,736.2 618.5,732 625.2,724.3 609,728.9 600.9,724.1 	"/>
	<path d="M579.2,747.7c2.8,1.6,5.7,3.3,8.2,5c5.9-1.5,11.4-2.9,17-4.4l7.1-8.3l-16.8,4.8l-8.1-5.3L579.2,747.7z"/>
	<polygon points="570.8,756.2 561.8,765 569.7,770.4 587.8,765.9 596.4,757 578.3,762 	"/>
	<polygon points="552.4,774.1 542.8,783.5 550.7,789.5 569.5,784.7 578.8,775.1 559.9,780.4 	"/>
	<polygon points="559.8,794.7 540.1,800.3 532.7,793.3 522.2,803.5 530,810.2 549.7,805.1 	"/>
	<path d="M564.9,497.9c-2-0.1-4.1-0.2-6.4-0.2c-5.2-0.1-10-0.2-13.9-0.1l6.5,1.4c2,0,4.2,0,6.5,0.1c2.2,0,4.6,0.1,7,0.2
		c4.5,0.2,9.3,0.5,12.8,0.7c-2.2-0.5-5.1-1.2-7.2-1.7C568.5,498.1,566.8,498,564.9,497.9z"/>
	<path d="M567.4,499.7c-5.2-0.2-9.9-0.2-13.9-0.2l6.2,1.5c4,0,8.8,0.1,13.5,0.3c4.5,0.2,9.1,0.6,12.7,0.9c-2.1-0.6-4.8-1.3-6.9-1.8
		C576,500.1,571.9,499.9,567.4,499.7z"/>
	<path d="M619.7,492.5l-7.4-1.5c-0.7,0.7-1.2,1.5-1.2,2.5c0,0.8,0.6,1.6,1,2.2c2.3,0.5,5.3,1.3,7.6,1.8c-0.4-0.7-1.2-1.7-1.1-2.6
		C618.9,494,619.1,493.2,619.7,492.5z"/>
	<path d="M576,501.9c-5.2-0.2-9.8-0.3-13.9-0.3c2.2,0.5,4,1.1,6.1,1.6c4,0.1,8.6,0.2,13.6,0.4c4.5,0.2,9,0.7,12.5,1
		c-2-0.6-4.6-1.4-6.6-2C584.4,502.4,580.5,502.1,576,501.9z"/>
	<path d="M629.7,494.6c-2.5-0.5-4.6-1.1-7.3-1.6c-0.6,0.7-1.4,1.6-1.5,2.6c-0.1,0.9,0.2,1.7,0.7,2.3c2.2,0.6,5.1,1.4,7.3,2
		c-0.2-0.8-0.9-1.8-0.6-2.7C628.6,496.3,629.1,495.4,629.7,494.6z"/>
	<path d="M584.3,504.3c-5-0.3-10-0.4-14-0.4l3.1,0.9l2.8,0.9c4,0.1,8.6,0.3,13.5,0.6c4.7,0.2,9,0.8,12.5,1.1
		c-1.9-0.7-4.2-1.5-6.4-2.1C592.6,504.8,588.8,504.5,584.3,504.3z"/>
	<path d="M639.5,497l-3.5-0.9l-3.7-0.8c-0.9,0.7-1.5,1.6-1.9,2.7c-0.3,0.9-0.1,1.8,0.3,2.5c2.4,0.6,5,1.5,7.2,2.1
		c-0.1-0.8-0.4-1.9-0.2-2.9C638,498.7,638.7,497.8,639.5,497z"/>
	<path d="M592.4,506.8c-5.2-0.3-10.1-0.5-14.1-0.5c1.9,0.6,3.9,1.2,5.7,1.9c4,0.1,8.5,0.4,13.4,0.7c4.5,0.3,9.3,0.9,12.5,1.3
		c-1.6-0.7-4.3-1.6-6.2-2.3C600.6,507.5,596.8,507.1,592.4,506.8z"/>
	<path d="M649.1,499.5c-2.2-0.6-4.7-1.2-7-1.9c-1,0.8-1.8,1.7-2.2,2.9c-0.5,1-0.5,1.9-0.2,2.6c2.1,0.7,5.1,1.5,7,2.3
		c0.2-0.9-0.5-2,0.1-3C647.2,501.3,648.1,500.3,649.1,499.5z"/>
	<path d="M600,509.5c-5.2-0.4-10-0.6-14-0.7l5.4,2c4.2,0.2,8.6,0.4,13.4,0.8c4.5,0.4,9,1,12.4,1.4c-1.8-0.8-4.2-1.7-5.9-2.5
		C608.2,510.3,604.6,509.9,600,509.5z"/>
	<path d="M658.2,502.2l-6.8-2c-1.1,0.8-2.2,1.8-2.8,3c-0.4,1-0.6,2-0.5,2.8c2,0.7,4.7,1.7,6.8,2.5c0.1-0.9-0.2-2.1,0.5-3.2
		C656.2,504.1,657.3,503.1,658.2,502.2z"/>
	<path d="M607.2,512.5c-5.2-0.4-9.9-0.7-13.9-0.8l5,2.2c4,0.2,8.8,0.5,13.5,0.9c4.4,0.4,8.8,1.1,12.2,1.6c-1.7-0.8-3.8-1.9-5.5-2.7
		C615.6,513.3,611.7,512.9,607.2,512.5z"/>
	<path d="M664,508.3c1-1.2,1.9-2.2,3.1-3.2l-6.4-2.2c-1.3,0.9-2.6,1.9-3.4,3.2c-0.7,1.1-0.7,2-0.8,2.9c1.9,0.8,4.4,1.8,6.3,2.7
		C663.1,510.7,663.1,509.4,664,508.3z"/>
	<path d="M614.2,515.7c-5-0.5-9.8-0.8-14-1c1.8,0.7,3.3,1.5,4.8,2.3c4.1,0.3,8.6,0.6,13.5,1.1c4.5,0.5,8.7,1.3,12,1.8
		c-1.6-0.9-3.4-2-5.1-2.8C622.4,516.6,618.6,516.1,614.2,515.7z"/>
	<path d="M672.1,511.6c1-1.3,2.2-2.4,3.6-3.3c-2-0.8-3.9-1.6-6.2-2.3c-1.3,0.9-2.7,2-3.7,3.3c-0.9,1.1-1.2,2.2-1.2,3.1
		c2,0.8,4.2,2,6,2.8C670.9,514.2,671.1,512.8,672.1,511.6z"/>
	<path d="M631.8,520.6c-3-0.5-6.7-1.1-11.1-1.6c-4.9-0.6-10-0.9-14-1.1c1.6,0.8,3.3,1.6,4.6,2.5c4,0.3,8.6,0.7,13.4,1.3
		c2.2,0.3,4.5,0.6,6.6,0.9c2,0.4,3.9,0.7,5.4,1c-0.7-0.5-1.5-1-2.3-1.6C633.5,521.6,632.6,521.1,631.8,520.6z"/>
	<path d="M673.7,512.6c-1.1,1.2-1.6,2.3-1.8,3.2c0.9,0.4,2,1,3.1,1.5c0.9,0.5,1.9,1.1,2.7,1.6c0.3-0.5,0.6-1.2,0.9-1.8
		c0.2-0.6,0.5-1.3,1.1-1.9c1.2-1.3,2.7-2.5,4.2-3.5c-1.8-0.9-4-1.7-6-2.5C676.3,510.1,675.1,511.3,673.7,512.6z"/>
	<path d="M626.9,522.7c-5.2-0.6-10-1-14.1-1.3l4.4,2.7c4.1,0.3,8.5,0.8,13.2,1.4c4.4,0.6,8.7,1.5,12,2.2c-1.4-1-3.3-2.3-4.7-3.2
		C634.8,523.8,631.4,523.2,626.9,522.7z"/>
	<path d="M681.4,516.3c-1.1,1.3-2,2.4-2.3,3.4c1.7,1,3.9,2.2,5.6,3.2c0.6-1.1,1-2.6,2.4-3.9c1.4-1.4,3.2-2.6,4.9-3.7l-5.9-2.7
		C684.3,513.6,682.6,514.8,681.4,516.3z"/>
	<path d="M632.5,526.5c-5.1-0.7-9.8-1.2-13.9-1.5l3.8,2.9c4.1,0.4,8.8,0.9,13.3,1.6c4.3,0.7,8.4,1.7,11.7,2.4
		c-1.2-1.1-2.8-2.4-4-3.5C640.7,527.8,636.9,527.2,632.5,526.5z"/>
	<path d="M685.9,523.8c1.5,1,3.5,2.4,5,3.5c0.8-1.2,1.5-2.8,3.2-4.2c1.9-1.5,3.5-2.8,5.2-3.9l-5.4-2.9c-1.9,1-3.8,2.3-5.4,3.8
		C687.1,521.5,686.5,522.7,685.9,523.8z"/>
	<path d="M648.5,532.8c-2.9-0.7-6.5-1.4-10.8-2.1c-5-0.8-9.5-1.3-13.8-1.7c1.3,1,2.2,2,3.4,3.1c4.1,0.4,8.6,1,13.3,1.8
		c4.6,0.7,8.2,1.9,11.4,2.6C650.9,535.4,649.9,533.9,648.5,532.8z"/>
	<path d="M692.1,528.1c1.7,1.1,3.2,2.6,4.6,3.7c1-1.2,2.3-3,3.8-4.4c1.8-1.5,3.8-2.9,5.7-4c-1.7-1-3.1-2.1-5-3.1
		c-1.8,1.1-4.3,2.4-6,4C693.7,525.7,692.7,527,692.1,528.1z"/>
	<path d="M642.4,535.1c-4.9-0.9-9.9-1.4-13.9-1.8c1,1.1,2.5,2.1,3.2,3.3c4,0.5,8.4,1.2,13,2c4.3,0.8,8.5,2,11.5,2.8
		c-0.9-1.2-2.4-2.8-3.4-3.9C650.1,536.7,646.6,535.9,642.4,535.1z"/>
	<path d="M697.8,532.8c1.3,1.2,3.3,2.7,4.5,4c1.3-1.3,2.2-3.1,4.2-4.6c2.1-1.6,4.4-3,6.6-4.3c-1.3-1.2-3.3-2.2-4.9-3.3
		c-2.2,1.1-4.3,2.5-6.4,4.2C699.8,530.3,698.6,531.6,697.8,532.8z"/>
	<path d="M646.5,539.9c-5-1-9.7-1.6-13.7-2.1l2.8,3.5c2,0.3,4.2,0.6,6.5,1c2.2,0.4,4.3,0.8,6.6,1.3c4.2,0.9,8,2.2,11.1,3.1
		c-0.8-1.3-1.9-3-2.7-4.2C654.4,541.6,650.8,540.7,646.5,539.9z"/>
	<path d="M703.1,537.8c1.1,1.3,2.6,3,3.8,4.3c1.4-1.4,2.8-3.3,5.1-4.9c1.2-0.9,2.5-1.7,3.7-2.4c1.1-0.7,2.3-1.4,3.4-2l-4.5-3.6
		c-2.4,1.2-5,2.7-7.2,4.4C705.6,535.1,704.3,536.5,703.1,537.8z"/>
	<path d="M649.9,544.9c-4.8-1.1-9.3-1.8-13.5-2.3c0.8,1.2,1.4,2.5,2.1,3.8c4,0.6,8.4,1.4,13.1,2.5c4.5,1,7.9,2.4,10.8,3.4
		c-0.5-1.4-1.2-3.2-2.2-4.5C657.5,546.8,654.1,545.8,649.9,544.9z"/>
	<path d="M707.9,543.2c1.3,1.3,2.4,3.2,3.3,4.6c1.6-1.5,3.6-3.5,5.8-5.2c2.5-1.8,5.2-3.4,7.7-4.7c-1.3-1.3-2.5-2.6-3.9-3.8
		c-2.5,1.2-5.5,2.8-8.1,4.7C710.5,540.3,708.9,541.8,707.9,543.2z"/>
	<path d="M653.1,550.3c-4.9-1.1-9.7-1.9-13.8-2.5c0.6,1.3,1.5,2.6,2,4c3.9,0.7,8.2,1.6,12.6,2.8c4.2,1.1,7.9,2.6,10.8,3.7
		c-0.6-1.5-1.3-3.4-1.9-4.8C660.3,552.4,657.1,551.3,653.1,550.3z"/>
	<path d="M711.9,548.9c0.9,1.5,2.1,3.4,3.1,4.9c1.7-1.5,3.5-3.6,6.3-5.4c2.9-1.9,5.9-3.6,8.8-5c-1.1-1.4-2.6-2.7-3.9-4.1
		c-2.7,1.3-5.7,2.9-8.4,4.8C715.1,545.9,713.2,547.5,711.9,548.9z"/>
	<path d="M655.2,556.1c-4.7-1.3-9.4-2.2-13.4-2.8l1.3,4.3c4,0.8,8.6,1.7,12.9,3c4,1.2,7.3,2.9,10.1,4.1c-0.3-1.6-0.6-3.6-0.9-5.2
		C662.7,558.3,659.3,557.2,655.2,556.1z"/>
	<path d="M715.7,555c0.6,1.6,1.4,3.6,2.1,5.3c2-1.6,4.3-3.9,7.5-5.8c3.2-2,6.1-3.7,9.1-5.2l-3.2-4.4c-3,1.4-6.4,3.1-9.4,5.1
		C719,551.9,717.2,553.5,715.7,555z"/>
	<path d="M666.3,565.9c-2.4-1.2-5.5-2.4-9.5-3.7c-2.3-0.7-4.5-1.3-6.7-1.8c-2.3-0.5-4.5-0.9-6.6-1.3c0.6,1.5,0.7,3,0.8,4.6
		c3.9,0.9,8.1,1.9,12.5,3.3c4,1.3,7.8,3.1,10.3,4.4C667.1,569.7,666.5,567.5,666.3,565.9z"/>
	<path d="M725.3,556.3c-3.1,1.9-5.4,3.7-7.1,5.2c0.6,1.7,1.7,3.8,2,5.6c2.4-1.7,4.5-4.1,7.8-6.1c3.4-2.1,6.9-3.9,10.2-5.5
		c-0.8-1.6-1.5-3.2-2.8-4.7c-1.5,0.7-3.2,1.5-4.8,2.4C728.9,554.2,727.1,555.2,725.3,556.3z"/>
	<path d="M667,572.8c-1.1-0.6-2.4-1.3-3.9-2c-1.6-0.7-3.4-1.3-5.5-2c-4.6-1.5-9.2-2.6-13.2-3.4l0.4,4.8c2,0.5,4.1,1,6.2,1.6
		c2,0.6,4,1.3,6.1,2c3.8,1.4,7,3.4,9.6,4.8C666.8,576.9,666.9,574.5,667,572.8z"/>
	<path d="M724.1,565.9c-1.3,0.9-2.5,1.8-3.6,2.6c0.3,1.8,0.7,4.2,1.1,6c2.5-1.8,5.4-4.3,9-6.4c2-1.1,3.9-2.2,5.8-3.1
		c1.8-0.9,3.5-1.8,5.2-2.6l-2.5-5c-3.4,1.5-7.3,3.4-10.9,5.6C726.7,564,725.3,565,724.1,565.9z"/>
	<path d="M666.7,580.1c-2.3-1.4-5.2-2.8-9-4.3c-4.4-1.7-8.7-2.9-12.7-3.8l-0.6,5.2c3.8,1,8,2.3,12.2,4c4,1.5,7.2,3.7,9.4,5.2
		C666.6,584.5,666.6,582,666.7,580.1z"/>
	<path d="M721.8,576.1c0.3,1.9,0.9,4.4,0.6,6.4c3-1.9,6-4.6,9.8-6.8c4-2.3,8.1-4.4,11.8-6.1l-1.5-5.4c-3.7,1.6-8,3.6-12.2,6
		C726.7,572.4,723.9,574.4,721.8,576.1z"/>
	<path d="M665.6,588c-2.1-1.5-4.4-3.1-8.5-4.7c-4.5-1.8-9-3.1-13-4.1l-0.7,5.5c4,1.1,7.7,2.6,11.7,4.4c3.7,1.7,6.5,4,9,5.6
		C664.5,592.7,665.1,590,665.6,588z"/>
	<path d="M722.4,584.1c-0.1,2.1-0.1,4.8-0.2,6.9c3-2,6.5-4.9,10.8-7.2c4.5-2.5,9.3-4.6,13-6.4l-1.5-5.7c-3.9,1.6-8.3,3.7-12.6,6.2
		C728.4,580.2,724.8,582.3,722.4,584.1z"/>
	<path d="M662.8,600c0.3-1.2,0.6-2.5,0.8-3.5c-2.1-1.6-4.8-3.3-8.5-5.1c-4.2-2-8.5-3.4-12.3-4.5l-1.9,5.9c3.8,1.3,7.8,2.8,11.8,4.8
		c1.9,0.9,3.6,2,5,3.1c1.3,1.1,2.5,2.2,3.5,3.1C661.8,602.6,662.3,601.3,662.8,600z"/>
	<path d="M722.2,592.7c0,1.1-0.1,2.4-0.1,3.6c-0.3,1.3-0.5,2.6-0.8,3.8c1.7-1.1,3.7-2.4,5.7-3.7s3.9-2.7,6.1-3.9
		c4.7-2.6,9.4-4.8,13.7-6.7l-0.4-6.2c-4.3,1.7-9.2,3.9-14.1,6.6C728.1,588.6,724.8,590.8,722.2,592.7z"/>
	<path d="M660.6,605.5c-1.8-1.7-4.1-3.7-7.7-5.5c-4.3-2.1-8.7-3.7-12.6-4.9l-2,6.3c3.6,1.4,7.4,3.1,11,5.2c3.5,2,5.9,4.7,8.1,6.6
		C658.4,610.8,659.6,607.8,660.6,605.5z"/>
	<path d="M721,602c-0.5,2.4-1.1,5.5-1.7,7.9c3.6-2.3,7.9-5.5,12.9-8.1c5.3-2.8,10.6-5.1,15.2-7.1l-0.4-6.6
		c-4.4,1.8-9.5,4.1-14.5,6.9C727.9,597.5,723.9,599.9,721,602z"/>
	<path d="M654.9,619.2c0.6-1.4,1.2-2.9,1.7-4.1c-1.8-1.9-4.3-3.9-7.7-6c-3.9-2.3-8.1-4.1-11.8-5.4l-3.4,6.8
		c3.6,1.5,7.5,3.4,11.2,5.7c1.7,1.1,3.3,2.3,4.5,3.6c1.1,1.3,2.1,2.5,3,3.6C653.2,622.2,654.1,620.7,654.9,619.2z"/>
	<path d="M718.9,611.9c-0.3,1.3-0.6,2.7-0.9,4.2c-0.6,1.5-1.1,3-1.6,4.3c2-1.2,4.4-2.7,6.8-4.2c2.4-1.5,4.7-3,7.3-4.4
		c5.5-2.9,10.9-5.4,15.8-7.5l0.9-7.1c-4.9,1.9-10.5,4.4-16.2,7.4C726,607.2,722,609.7,718.9,611.9z"/>
	<path d="M651.3,625.5c-1.5-2-3.4-4.3-6.7-6.5c-4-2.5-8.2-4.4-12-5.9l-3.6,7.2c3.4,1.7,7,3.7,10.3,6.2c3.2,2.4,5.1,5.6,6.9,7.8
		C647.7,631.7,649.7,628.2,651.3,625.5z"/>
	<path d="M715.5,622.6c-1,2.7-2.4,6.3-3.5,9.2c4.2-2.6,9.5-6.2,15.4-9.2c6.2-3.1,12.2-5.8,17.6-8l0.9-7.6c-5.1,2-10.9,4.6-16.8,7.8
		C723.8,617.5,719.1,620.2,715.5,622.6z"/>
	<path d="M644.9,636.7c-1.5-2.2-3.6-4.7-6.7-7.1c-3.5-2.8-7.5-4.9-11.1-6.4L622,631c3.4,1.8,7.1,4.1,10.4,6.8c1.6,1.3,2.9,2.8,4,4.3
		c1,1.5,1.6,3,2.4,4.2C641.1,643.3,643.3,639.5,644.9,636.7z"/>
	<path d="M711.2,634.1c-1,2.9-2.5,6.8-4.4,9.9c2.4-1.4,5.2-3.1,8.1-4.8c2.7-1.7,5.6-3.4,8.6-5c6.5-3.3,12.7-6.1,18.3-8.4l2.4-8.2
		c-5.6,2.1-12,4.9-18.7,8.2C719.7,628.7,715,631.5,711.2,634.1z"/>
	<path d="M637,648.6c-1.2-2.4-2.5-5.1-5.7-7.7c-3.6-3-7.6-5.3-11.2-7l-5.5,8.3c3.5,2,6.5,4.5,9.5,7.5c2.8,2.8,4,6.6,5.4,9.3
		C631.9,655.8,634.8,651.7,637,648.6z"/>
	<path d="M705.5,646.4c-1.7,3.2-3.9,7.4-5.7,10.7c5.1-3,11.5-7.1,18.3-10.4c7.2-3.5,14.3-6.5,20.2-9l2.6-8.8
		c-5.8,2.2-12.5,5.1-19.4,8.7C715.5,640.7,709.7,643.7,705.5,646.4z"/>
	<path d="M627.7,661.5c-1-2.6-2.7-5.5-5.3-8.4c-3.1-3.3-6.7-5.8-10.1-7.7l-7.2,9c3.2,2.2,6.4,4.9,9.3,8.2c2.6,3.1,4.2,7.2,5,10.1
		C622.4,669.2,625.2,664.8,627.7,661.5z"/>
	<path d="M698.4,659.8c-2,3.4-3.9,7.9-6.4,11.5c5.9-3.2,12.2-7.6,19.5-11.1c7.6-3.7,14.8-6.9,21.3-9.5l4.3-9.6
		c-6.3,2.4-13.8,5.4-21.6,9.3C708.6,653.7,703,656.9,698.4,659.8z"/>
	<path d="M617,675.4c-0.3-1.4-0.7-2.9-1.3-4.5c-0.8-1.5-1.9-3.1-3.2-4.7c-3-3.6-6.7-6.4-10.1-8.5l-7.7,9.7c1.6,1.2,3.3,2.5,4.7,4
		s2.7,3.1,3.9,4.9c2.2,3.4,2.7,7.9,3.6,11.1C609.8,683.7,613.9,679,617,675.4z"/>
	<path d="M698.8,669.3c-3.2,1.7-6.1,3.3-8.7,4.9c-2.5,3.7-5.8,8.6-8.4,12.5c6-3.4,13.8-8.2,21.7-12c4.2-2,8.4-3.9,12.3-5.6
		c3.8-1.7,7.3-3.2,10.7-4.6l4.6-10.3c-6.6,2.5-14.4,5.8-22.5,9.9C705,665.8,701.8,667.6,698.8,669.3z"/>
	<path d="M604.1,690.4c-0.5-3.1-1.5-6.6-3.6-10.1c-2.4-4-5.7-7-8.8-9.3l-9.8,10.4c2.8,2.6,5.6,5.9,7.9,9.8c2.2,3.7,2.4,8.6,3.2,12.1
		C596.4,699.4,600.8,694.3,604.1,690.4z"/>
	<path d="M679.5,689.8c-2.7,4-6.3,9.3-9.1,13.5c6.4-3.6,14.5-8.8,22.9-12.8c8.9-4.3,17.3-7.9,24.7-10.9l6.6-11.2
		c-7.2,2.7-15.8,6.1-24.9,10.5C691.7,682.8,685,686.5,679.5,689.8z"/>
	<path d="M576.2,720.7c4.3-4.4,9.7-9.9,13.8-14.1c-0.1-3.4-1.2-7.2-3.2-11c-2.3-4.3-5.5-7.7-8.7-10.2l-10.5,11.3
		c2.7,2.9,5.8,6.5,7.4,10.8C576.6,711.6,576,716.9,576.2,720.7z"/>
	<path d="M668,706.7c-3.5,4.4-8.1,10.1-11.7,14.7c7.2-3.9,16.5-9.5,25.9-13.8c9.8-4.6,18.3-8.4,26.2-11.6l7.2-12.1
		c-7.6,2.8-16.6,6.5-26.2,11.2C681,699.2,674.1,703.2,668,706.7z"/>
	<path d="M572.7,724.3c0.3-3.7,0-7.9-1.4-12.1c-0.8-2.4-1.9-4.5-3.1-6.4c-1.4-1.8-3-3.4-4.5-4.8c-3.5,4-7.9,8-12.3,12.2
		c2.3,3.2,4.5,7.1,6,11.9c1.4,4.5,0.5,10.4,0.4,14.5C562.3,734.8,568.2,728.8,572.7,724.3z"/>
	<path d="M677.4,712.6c-9.4,4.4-17.4,8.7-24,12.5c-3.8,4.7-8.8,11.1-12.8,16.1c7.7-4.2,17.6-10.3,27.4-14.9
		c10.5-4.9,20.2-9.1,28.9-12.5c3.2-4.5,6.5-8.9,8.8-13.2c-4,1.5-8.3,3.3-12.9,5.2C687.9,707.8,682.8,710.1,677.4,712.6z"/>
	<path d="M553.9,743.4c0.5-4.1,0.4-8.6-0.8-13.3c-1.4-5.2-4-9.3-6.7-12.4l-14,13.2c2.2,3.5,4.2,7.9,5.5,13.1c1.4,5-0.7,11.4-1.5,16
		C542.1,754.9,549.3,748.4,553.9,743.4z"/>
	<path d="M637.4,745.2c-3.9,5.2-10.1,12.1-15.1,17.5c8.6-4.6,20.1-11.1,30.3-16.1c11.1-5.3,21.4-9.8,30.5-13.4l10.3-14.4
		c-8.8,3.2-19.2,7.5-30.5,12.9C652.9,736.5,644.4,741.1,637.4,745.2z"/>
	<path d="M515.2,764.9c0.3,5.5-2.1,12.6-3.2,17.6c6.2-5.7,14-12.8,19.8-18.2c1.2-4.5,1.9-9.5,1.4-14.6c-1.1-5.8-3.6-10.3-6.2-13.7
		c-5,4.7-9.9,9.5-15.3,14.4C513.5,754.3,514.8,759.1,515.2,764.9z"/>
	<path d="M618.2,767.2c-5.1,5.7-12,13.3-17.4,19.3c9.2-5,21.3-12.1,33-17.5c12.4-5.7,23.8-10.5,33.9-14.5
		c4.2-5.4,7.7-10.6,11.5-15.8c-9.2,3.5-20.2,8-32.2,13.9C635.7,757.7,626.2,762.7,618.2,767.2z"/>
	<path d="M507,787.1c1.5-5,2.6-10.5,2.4-16.2c-0.2-6.4-1.9-11.3-4-15.1l-18.2,15.6c1.5,4.3,2.5,9.6,2.5,16c0,6.1-3,13.9-4.5,19.6
		C492,800.9,500.6,793,507,787.1z"/>
	<path d="M596.3,791.4c-5.7,6.3-13.3,14.6-19.3,21.2c9.9-5.5,22.9-13.2,35.3-19.1c13.2-6.2,25.3-11.4,36-15.7l14.3-17.3
		c-10.2,3.7-22.4,8.6-35.8,14.9C615.1,781,604.9,786.5,596.3,791.4z"/>
</g>
<g>
	<path d="M801.5,674.4l0.7,0.8c-1.2,1.2-2.6,1.8-4.1,1.8c-2.8,0-4.4-1.5-4.7-4.5c-1.5,3-3.9,4.5-7.3,4.5c-3.4,0-6.2-2-6.2-5.3
		c0-2.9,1.6-5,4.9-6.3c2.3-0.9,5.2-1.4,8.7-1.4v-5.5c0-2.8-1.3-4.1-3.8-4.1c-0.8,0-1.6,0.2-2.6,0.6c-1.3,0.5-1.9,1-1.9,1.7
		c0,0.4,1.1,1.7,1.1,2.6c0,1.3-1.2,2.3-2.5,2.3c-1.4,0-2.4-1.1-2.4-2.6c0-1.8,1.1-3.3,3.3-4.4c1.8-0.9,3.7-1.4,5.7-1.4
		c2.9,0,5.1,0.7,6.5,2.2c1,1,1.5,2.9,1.5,5.5v11.4c0,1,0,1.7,0.1,2c0.2,0.8,0.6,1.2,1.2,1.2C800.2,675.4,800.8,675.1,801.5,674.4z
		 M793.5,664.9c-5.6,0.1-8.5,2-8.5,5.8c0,2.2,1.3,3.8,3.4,3.8c3.3,0,5-2.6,5-7.6V664.9z M788.4,650c-0.3,0-0.4-0.1-0.4-0.4
		c0-0.1,2-3.6,5.8-10.5h4.4c0.4,0,0.7,0.2,0.7,0.5c0,0.2-0.2,0.4-0.4,0.7l-9.7,9.5C788.5,649.9,788.4,650,788.4,650z"/>
	<path d="M802.3,653.8h8.9v5.3c1.4-3.9,3.5-5.8,6.4-5.8c2,0,3.5,1.3,3.5,3.2c0,1.6-1.3,2.8-2.8,2.8c-1,0-1.7-0.3-2.1-1
		c-0.2-0.3-0.4-0.9-0.5-1.9c-0.1-0.7-0.3-1-0.6-1c-0.7,0-1.5,0.9-2.3,2.8c-1.1,2.5-1.6,5.7-1.6,9.8v7h3.5v1.1h-12.4v-1.1h3.7V655
		h-3.8V653.8z"/>
	<path d="M836.5,653.8h8.8v21.3h3.7v1.1h-8.8v-3c-1.5,2.5-4,3.7-7.6,3.7c-2.9,0-4.9-0.8-6.1-2.2c-1-1.4-1.6-3.4-1.6-6.3V655h-3.5
		v-1.1h8.8v15.9c0,1.9,0.2,3.2,0.5,3.9c0.5,1.3,1.5,1.9,3.1,1.9c2.8,0,4.6-1.2,5.6-3.7c0.6-1.5,0.9-3.9,0.9-7.1V655h-3.7V653.8z"/>
	<path d="M850.9,676.3h-0.8v-8.6h1c0.8,2.6,1.6,4.4,2.3,5.4c1.2,1.6,2.9,2.4,5.1,2.4c2.6,0,5.2-1.7,5.2-4.3c0-1.7-1.1-2.8-3.5-3.4
		c-4.3-1-6.4-1.5-6.4-1.6c-2.3-1-3.5-3.1-3.5-5.9c0-2,0.7-3.7,2-5.1c1.3-1.4,2.9-2.1,4.9-2.1c2.1,0,3.9,0.7,5.6,2.1l1-1.8h0.9v6.8
		h-1c-0.5-3.3-3.2-5.7-6.5-5.7c-1.1,0-2.2,0.4-3.2,1.1c-1.1,0.8-1.6,1.7-1.6,2.8c0,1.4,1.2,2.3,3.5,2.9c3.8,0.8,5.9,1.4,6.5,1.7
		c2.3,1.1,3.5,3.2,3.5,6.2c0,2.1-0.7,4-2.1,5.5c-1.4,1.5-3.2,2.2-5.3,2.2c-2.1,0-4.2-0.8-6.2-2.5L850.9,676.3z"/>
	<path d="M888.1,676.3h-19.8l13.9-21.3h-2.9c-2,0-3.5,0.3-4.5,0.8c-0.8,0.5-1.5,1.3-2,2.5c-0.5,1.5-1,2.9-1.5,4.4h-0.8v-8.8h18.6
		l-14.1,21.3h3.9c2,0,3.3-0.1,3.9-0.2c1.3-0.3,2.2-1.1,2.9-2.3c0.8-1.4,1.4-3.3,1.9-5.9h0.7V676.3z"/>
	<path d="M915.1,674.4l0.7,0.8c-1.2,1.2-2.6,1.8-4.1,1.8c-2.8,0-4.4-1.5-4.7-4.5c-1.5,3-3.9,4.5-7.3,4.5c-3.4,0-6.2-2-6.2-5.3
		c0-2.9,1.6-5,4.9-6.3c2.3-0.9,5.2-1.4,8.7-1.4v-5.5c0-2.8-1.3-4.1-3.8-4.1c-0.8,0-1.6,0.2-2.6,0.6c-1.3,0.5-1.9,1-1.9,1.7
		c0,0.4,1.1,1.7,1.1,2.6c0,1.3-1.2,2.3-2.5,2.3c-1.4,0-2.4-1.1-2.4-2.6c0-1.8,1.1-3.3,3.3-4.4c1.8-0.9,3.7-1.4,5.7-1.4
		c2.9,0,5.1,0.7,6.5,2.2c1,1,1.5,2.9,1.5,5.5v11.4c0,1,0,1.7,0.1,2c0.2,0.8,0.6,1.2,1.2,1.2C913.8,675.4,914.4,675.1,915.1,674.4z
		 M907.1,664.9c-5.6,0.1-8.5,2-8.5,5.8c0,2.2,1.3,3.8,3.4,3.8c3.3,0,5-2.6,5-7.6V664.9z M902,650c-0.3,0-0.4-0.1-0.4-0.4
		c0-0.1,2-3.6,5.8-10.5h4.4c0.4,0,0.7,0.2,0.7,0.5c0,0.2-0.2,0.4-0.4,0.7l-9.7,9.5C902.1,649.9,902,650,902,650z"/>
	<path d="M915.5,637.8h9.4v37.4h4.1v1.1h-13.5v-1.1h4V639h-4.1V637.8z"/>
	<path d="M928.9,637.8h9.4v37.4h4.1v1.1H929v-1.1h4V639h-4.1V637.8z"/>
	<path d="M942.6,653.8h8.8v21.3h3.5v1.1h-12.4v-1.1h3.8V655h-3.7V653.8z M946.6,650c-0.3,0-0.4-0.1-0.4-0.4c0-0.1,2-3.6,5.8-10.5
		h4.4c0.4,0,0.7,0.2,0.7,0.5c0,0.2-0.2,0.4-0.4,0.7l-9.7,9.5C946.7,649.9,946.5,650,946.6,650z"/>
	<path d="M970.7,655h-5.8v16.6c0,2.4,0.9,3.6,2.7,3.6c1.8,0,2.9-1,3.3-3.1h1.2c-0.7,3.2-2.7,4.9-6.1,4.9c-2.6,0-4.4-0.8-5.2-2.4
		c-0.6-1-0.9-3-0.9-5.8V655h-3.5v-0.8c1.7-0.8,3.4-2.1,4.9-3.9c1.5-1.8,2.5-3.7,2.9-5.6h0.8v9.1h5.8V655z"/>
	<path d="M996.7,674.4l0.7,0.8c-1.2,1.2-2.6,1.8-4.1,1.8c-2.8,0-4.4-1.5-4.7-4.5c-1.5,3-3.9,4.5-7.3,4.5c-3.4,0-6.2-2-6.2-5.3
		c0-2.9,1.6-5,4.9-6.3c2.3-0.9,5.2-1.4,8.7-1.4v-5.5c0-2.8-1.3-4.1-3.8-4.1c-0.8,0-1.6,0.2-2.6,0.6c-1.3,0.5-1.9,1-1.9,1.7
		c0,0.4,1.1,1.7,1.1,2.6c0,1.3-1.2,2.3-2.5,2.3c-1.4,0-2.4-1.1-2.4-2.6c0-1.8,1.1-3.3,3.3-4.4c1.8-0.9,3.7-1.4,5.7-1.4
		c2.9,0,5.1,0.7,6.5,2.2c1,1,1.5,2.9,1.5,5.5v11.4c0,1,0,1.7,0.1,2c0.2,0.8,0.6,1.2,1.2,1.2C995.4,675.4,996,675.1,996.7,674.4z
		 M988.7,664.9c-5.6,0.1-8.5,2-8.5,5.8c0,2.2,1.3,3.8,3.4,3.8c3.3,0,5-2.6,5-7.6V664.9z M983.7,650c-0.3,0-0.4-0.1-0.4-0.4
		c0-0.1,2-3.6,5.8-10.5h4.4c0.4,0,0.7,0.2,0.7,0.5c0,0.2-0.2,0.4-0.4,0.7l-9.7,9.5C983.8,649.9,983.6,650,983.7,650z"/>
	<path d="M999,676.3h-0.8v-8.6h1c0.8,2.6,1.6,4.4,2.3,5.4c1.2,1.6,2.9,2.4,5.1,2.4c2.6,0,5.2-1.7,5.2-4.3c0-1.7-1.1-2.8-3.5-3.4
		c-4.3-1-6.4-1.5-6.4-1.6c-2.3-1-3.5-3.1-3.5-5.9c0-2,0.7-3.7,2-5.1c1.3-1.4,2.9-2.1,4.9-2.1c2.1,0,3.9,0.7,5.6,2.1l1-1.8h0.9v6.8
		h-1c-0.5-3.3-3.2-5.7-6.5-5.7c-1.1,0-2.2,0.4-3.2,1.1c-1.1,0.8-1.6,1.7-1.6,2.8c0,1.4,1.2,2.3,3.5,2.9c3.8,0.8,5.9,1.4,6.5,1.7
		c2.3,1.1,3.5,3.2,3.5,6.2c0,2.1-0.7,4-2.1,5.5c-1.4,1.5-3.2,2.2-5.3,2.2s-4.2-0.8-6.2-2.5L999,676.3z"/>
	<path d="M1019.4,683.9c3.4-2.7,5.2-5.3,5.2-8c0-1.4-0.5-2.3-1.4-2.7c0.1,0.4,0.1,0.5,0.1,0.5c0,1.6-1.2,2.8-2.8,2.8
		c-1.7,0-3-1.3-3-3.1c0-2.2,1.8-3.6,4-3.6c3,0,4.7,2.5,4.7,5.6c0,3.7-2,6.9-5.9,9.7L1019.4,683.9z"/>
	<path d="M1044.1,653.8h8.9v5.3c1.4-3.9,3.5-5.8,6.4-5.8c2,0,3.5,1.3,3.5,3.2c0,1.6-1.3,2.8-2.8,2.8c-1,0-1.7-0.3-2.1-1
		c-0.2-0.3-0.4-0.9-0.5-1.9c-0.1-0.7-0.3-1-0.6-1c-0.7,0-1.5,0.9-2.3,2.8c-1.1,2.5-1.6,5.7-1.6,9.8v7h3.5v1.1h-12.4v-1.1h3.7V655
		h-3.8V653.8z"/>
	<path d="M1086.1,674.4l0.7,0.8c-1.2,1.2-2.6,1.8-4.1,1.8c-2.8,0-4.4-1.5-4.7-4.5c-1.5,3-3.9,4.5-7.3,4.5c-3.4,0-6.2-2-6.2-5.3
		c0-2.9,1.6-5,4.9-6.3c2.3-0.9,5.2-1.4,8.7-1.4v-5.5c0-2.8-1.3-4.1-3.8-4.1c-0.8,0-1.6,0.2-2.6,0.6c-1.3,0.5-1.9,1-1.9,1.7
		c0,0.4,1.1,1.7,1.1,2.6c0,1.3-1.2,2.3-2.5,2.3c-1.4,0-2.4-1.1-2.4-2.6c0-1.8,1.1-3.3,3.3-4.4c1.8-0.9,3.7-1.4,5.7-1.4
		c2.9,0,5.1,0.7,6.5,2.2c1,1,1.5,2.9,1.5,5.5v11.4c0,1,0,1.7,0.1,2c0.2,0.8,0.6,1.2,1.2,1.2C1084.8,675.4,1085.4,675.1,1086.1,674.4
		z M1078.1,664.9c-5.6,0.1-8.5,2-8.5,5.8c0,2.2,1.3,3.8,3.4,3.8c3.3,0,5-2.6,5-7.6V664.9z"/>
	<path d="M1087.1,637.8h8.9v37.4h3.8v1.1h-12.6v-1.1h3.5V639h-3.5V637.8z M1114.4,675.2v1.1H1102v-1.1h2.9l-8.2-11l9.7-9.2h-5.7
		v-1.1h11.6v1.1h-3.9l-7.3,6.8l10.7,13.4H1114.4z"/>
	<path d="M1128.6,655h-5.8v16.6c0,2.4,0.9,3.6,2.7,3.6s2.9-1,3.3-3.1h1.2c-0.7,3.2-2.7,4.9-6.1,4.9c-2.6,0-4.4-0.8-5.2-2.4
		c-0.6-1-0.9-3-0.9-5.8V655h-3.5v-0.8c1.7-0.8,3.4-2.1,4.9-3.9c1.5-1.8,2.5-3.7,2.9-5.6h0.8v9.1h5.8V655z"/>
	<path d="M1154.6,674.4l0.7,0.8c-1.2,1.2-2.6,1.8-4.1,1.8c-2.8,0-4.4-1.5-4.7-4.5c-1.5,3-3.9,4.5-7.3,4.5c-3.4,0-6.2-2-6.2-5.3
		c0-2.9,1.6-5,4.9-6.3c2.3-0.9,5.2-1.4,8.7-1.4v-5.5c0-2.8-1.3-4.1-3.8-4.1c-0.8,0-1.6,0.2-2.6,0.6c-1.3,0.5-1.9,1-1.9,1.7
		c0,0.4,1.1,1.7,1.1,2.6c0,1.3-1.2,2.3-2.5,2.3c-1.4,0-2.4-1.1-2.4-2.6c0-1.8,1.1-3.3,3.3-4.4c1.8-0.9,3.7-1.4,5.7-1.4
		c2.9,0,5.1,0.7,6.5,2.2c1,1,1.5,2.9,1.5,5.5v11.4c0,1,0,1.7,0.1,2c0.2,0.8,0.6,1.2,1.2,1.2C1153.3,675.4,1153.9,675.1,1154.6,674.4
		z M1146.6,664.9c-5.6,0.1-8.5,2-8.5,5.8c0,2.2,1.3,3.8,3.4,3.8c3.3,0,5-2.6,5-7.6V664.9z M1141.5,650c-0.3,0-0.4-0.1-0.4-0.4
		c0-0.1,2-3.6,5.8-10.5h4.4c0.4,0,0.7,0.2,0.7,0.5c0,0.2-0.2,0.4-0.4,0.7l-9.7,9.5C1141.6,649.9,1141.4,650,1141.5,650z"/>
	<path d="M1155.3,653.8h8.9v5.3c1.4-3.9,3.5-5.8,6.4-5.8c2,0,3.5,1.3,3.5,3.2c0,1.6-1.3,2.8-2.8,2.8c-1,0-1.7-0.3-2.1-1
		c-0.2-0.3-0.4-0.9-0.5-1.9c-0.1-0.7-0.3-1-0.6-1c-0.7,0-1.5,0.9-2.3,2.8c-1.1,2.5-1.6,5.7-1.6,9.8v7h3.5v1.1h-12.4v-1.1h3.7V655
		h-3.8V653.8z"/>
	<path d="M1195.6,673.5c-2.2,2.3-5,3.5-8.2,3.5c-3.2,0-6-1.1-8.3-3.5c-2.3-2.3-3.4-5.1-3.4-8.3c0-3.3,1.1-6.1,3.4-8.4
		c2.3-2.3,5.1-3.5,8.3-3.5c3.2,0,5.9,1.2,8.2,3.5c2.2,2.3,3.3,5.1,3.3,8.3S1197.9,671.1,1195.6,673.5z M1182.1,658.6
		c-0.2,0.9-0.3,3.4-0.3,7.6c0,3,0.2,5.1,0.7,6.3c0.8,2.1,2.4,3.1,5,3.1c2.7,0,4.3-1.3,5-3.8c0.3-0.9,0.4-3.3,0.4-7
		c0-3.5-0.1-5.8-0.4-6.8c-0.7-2.4-2.3-3.6-4.9-3.6C1184.6,654.4,1182.8,655.9,1182.1,658.6z"/>
	<path d="M1220.9,676.3h-19.8L1215,655h-2.9c-2,0-3.5,0.3-4.5,0.8c-0.8,0.5-1.5,1.3-2,2.5c-0.5,1.5-1,2.9-1.5,4.4h-0.8v-8.8h18.6
		l-14.1,21.3h3.9c2,0,3.3-0.1,3.9-0.2c1.3-0.3,2.2-1.1,2.9-2.3c0.8-1.4,1.4-3.3,1.9-5.9h0.7V676.3z"/>
	<path d="M1247.9,674.4l0.7,0.8c-1.2,1.2-2.6,1.8-4.1,1.8c-2.8,0-4.4-1.5-4.7-4.5c-1.5,3-3.9,4.5-7.3,4.5c-3.4,0-6.2-2-6.2-5.3
		c0-2.9,1.6-5,4.9-6.3c2.3-0.9,5.2-1.4,8.7-1.4v-5.5c0-2.8-1.3-4.1-3.8-4.1c-0.8,0-1.6,0.2-2.6,0.6c-1.3,0.5-1.9,1-1.9,1.7
		c0,0.4,1.1,1.7,1.1,2.6c0,1.3-1.2,2.3-2.5,2.3c-1.4,0-2.4-1.1-2.4-2.6c0-1.8,1.1-3.3,3.3-4.4c1.8-0.9,3.7-1.4,5.7-1.4
		c2.9,0,5.1,0.7,6.5,2.2c1,1,1.5,2.9,1.5,5.5v11.4c0,1,0,1.7,0.1,2c0.2,0.8,0.6,1.2,1.2,1.2C1246.6,675.4,1247.2,675.1,1247.9,674.4
		z M1239.9,664.9c-5.6,0.1-8.5,2-8.5,5.8c0,2.2,1.3,3.8,3.4,3.8c3.3,0,5-2.6,5-7.6V664.9z M1234.8,650c-0.3,0-0.4-0.1-0.4-0.4
		c0-0.1,2-3.6,5.8-10.5h4.4c0.4,0,0.7,0.2,0.7,0.5c0,0.2-0.2,0.4-0.4,0.7l-9.7,9.5C1235,649.9,1234.8,650,1234.8,650z"/>
	<path d="M1250.2,676.3h-0.8v-8.6h1c0.8,2.6,1.6,4.4,2.3,5.4c1.2,1.6,2.9,2.4,5.1,2.4c2.6,0,5.2-1.7,5.2-4.3c0-1.7-1.1-2.8-3.5-3.4
		c-4.3-1-6.4-1.5-6.4-1.6c-2.3-1-3.5-3.1-3.5-5.9c0-2,0.7-3.7,2-5.1c1.3-1.4,2.9-2.1,4.9-2.1c2.1,0,3.9,0.7,5.6,2.1l1-1.8h0.9v6.8
		h-1c-0.5-3.3-3.2-5.7-6.5-5.7c-1.1,0-2.2,0.4-3.2,1.1c-1.1,0.8-1.6,1.7-1.6,2.8c0,1.4,1.2,2.3,3.5,2.9c3.8,0.8,5.9,1.4,6.5,1.7
		c2.3,1.1,3.5,3.2,3.5,6.2c0,2.1-0.7,4-2.1,5.5c-1.4,1.5-3.2,2.2-5.3,2.2s-4.2-0.8-6.2-2.5L1250.2,676.3z"/>
	<path d="M1270.6,683.9c3.4-2.7,5.2-5.3,5.2-8c0-1.4-0.5-2.3-1.4-2.7c0.1,0.4,0.1,0.5,0.1,0.5c0,1.6-1.2,2.8-2.8,2.8
		c-1.7,0-3-1.3-3-3.1c0-2.2,1.8-3.6,4-3.6c3,0,4.7,2.5,4.7,5.6c0,3.7-2,6.9-5.9,9.7L1270.6,683.9z"/>
	<path d="M1294.9,637.8h9.4v37.4h4.1v1.1H1295v-1.1h4V639h-4.1V637.8z"/>
	<path d="M1329.5,673.5c-2.2,2.3-5,3.5-8.2,3.5c-3.2,0-6-1.1-8.3-3.5c-2.3-2.3-3.4-5.1-3.4-8.3c0-3.3,1.1-6.1,3.4-8.4
		c2.3-2.3,5.1-3.5,8.3-3.5c3.2,0,5.9,1.2,8.2,3.5c2.2,2.3,3.3,5.1,3.3,8.3S1331.7,671.1,1329.5,673.5z M1315.9,658.6
		c-0.2,0.9-0.3,3.4-0.3,7.6c0,3,0.2,5.1,0.7,6.3c0.8,2.1,2.4,3.1,5,3.1c2.7,0,4.3-1.3,5-3.8c0.3-0.9,0.4-3.3,0.4-7
		c0-3.5-0.1-5.8-0.4-6.8c-0.7-2.4-2.3-3.6-4.9-3.6C1318.5,654.4,1316.7,655.9,1315.9,658.6z"/>
	<path d="M1356.1,676.4c1.2,0.9,1.8,2.6,1.8,4.9c0,3.3-1.2,6-3.6,8c-2.2,1.9-5,2.9-8.5,2.9c-2.5,0-4.7-0.5-6.7-1.6
		c-2.5-1.4-3.8-3.1-3.8-5.3c0-1.3,0.4-2.3,1.4-3.3c0.8-0.9,1.9-1.5,3.1-1.9c-2.9-0.9-4.3-2.6-4.3-5.1c0-2.6,1.7-5,5.1-7
		c-2.4-1.6-3.6-3.9-3.6-6.7c0-2.5,0.9-4.5,2.8-5.9c1.7-1.4,3.9-2.1,6.4-2.1c2.5,0,4.6,0.8,6.4,2.4c1.4-1.4,2.8-2.1,4.1-2.1
		c1.5,0,2.8,0.9,2.8,2.4c0,1.1-1,2.1-2.1,2.1c-0.9,0-1.6-0.4-1.9-1.3c-0.3-0.9-0.5-1.3-0.8-1.3s-0.7,0.3-1.3,0.9
		c1.3,1.6,1.9,3.3,1.9,5.2c0,2.5-1,4.4-2.9,5.9c-1.7,1.4-3.9,2-6.4,2c-1.7,0-3.2-0.3-4.4-1c-2.6,2-3.8,3.5-3.8,4.7
		c0,1,0.5,1.7,1.6,2c0.5,0.1,1.5,0.2,2.9,0.2l8.7-0.1C1353.4,675.2,1355,675.6,1356.1,676.4z M1340.8,680.2
		c-1.3,1.4-1.9,2.8-1.9,4.4c0,3.8,3.1,6.1,6.9,6.1c2.6,0,4.9-0.7,6.9-2c2.2-1.5,3.4-3.5,3.4-6.1c0-1-0.3-1.7-0.9-2.1
		c-0.4-0.3-1.2-0.4-2.3-0.4c-0.9,0-2.2,0.1-3.9,0.1c-1.7,0.1-3,0.2-3.8,0.2C1343.6,680.4,1342.2,680.3,1340.8,680.2z M1349.3,655.6
		c-0.5-0.9-1.5-1.3-3.1-1.3c-1.8,0-2.9,0.7-3.4,2.2c-0.2,0.7-0.3,2.2-0.3,4.5v1.9c0,1.9,0.2,3.1,0.4,3.8c0.5,1.1,1.5,1.7,3.2,1.7
		c1.9,0,3.1-0.9,3.5-2.6c0.1-0.5,0.2-2.1,0.2-5V659C1349.9,657.3,1349.7,656.2,1349.3,655.6z"/>
	<path d="M1359.7,653.8h8.8v21.3h3.5v1.1h-12.4v-1.1h3.8V655h-3.7V653.8z M1365.8,638.7c1.8,0,3.2,1.4,3.2,3.2
		c0,1.8-1.4,3.2-3.2,3.2c-1.8,0-3.2-1.4-3.2-3.2C1362.6,640.1,1364,638.7,1365.8,638.7z"/>
	<path d="M1374.2,676.3h-0.8v-8.6h1c0.8,2.6,1.6,4.4,2.3,5.4c1.2,1.6,2.9,2.4,5.1,2.4c2.6,0,5.2-1.7,5.2-4.3c0-1.7-1.1-2.8-3.5-3.4
		c-4.3-1-6.4-1.5-6.4-1.6c-2.3-1-3.5-3.1-3.5-5.9c0-2,0.7-3.7,2-5.1c1.3-1.4,2.9-2.1,4.9-2.1c2.1,0,3.9,0.7,5.6,2.1l1-1.8h0.9v6.8
		h-1c-0.5-3.3-3.2-5.7-6.5-5.7c-1.1,0-2.2,0.4-3.2,1.1c-1.1,0.8-1.6,1.7-1.6,2.8c0,1.4,1.2,2.3,3.5,2.9c3.8,0.8,5.9,1.4,6.5,1.7
		c2.3,1.1,3.5,3.2,3.5,6.2c0,2.1-0.7,4-2.1,5.5c-1.4,1.5-3.2,2.2-5.3,2.2s-4.2-0.8-6.2-2.5L1374.2,676.3z"/>
	<path d="M1411.4,676.3h-19.8l13.9-21.3h-2.9c-2,0-3.5,0.3-4.5,0.8c-0.8,0.5-1.5,1.3-2,2.5c-0.5,1.5-1,2.9-1.5,4.4h-0.8v-8.8h18.6
		l-14.1,21.3h3.9c2,0,3.3-0.1,3.9-0.2c1.3-0.3,2.2-1.1,2.9-2.3c0.8-1.4,1.4-3.3,1.9-5.9h0.7V676.3z"/>
	<path d="M1429.4,655h-5.8v16.6c0,2.4,0.9,3.6,2.7,3.6s2.9-1,3.3-3.1h1.2c-0.7,3.2-2.7,4.9-6.1,4.9c-2.6,0-4.4-0.8-5.2-2.4
		c-0.6-1-0.9-3-0.9-5.8V655h-3.5v-0.8c1.7-0.8,3.4-2.1,4.9-3.9c1.5-1.8,2.5-3.7,2.9-5.6h0.8v9.1h5.8V655z"/>
	<path d="M1432.9,653.8h8.8v21.3h3.5v1.1h-12.4v-1.1h3.8V655h-3.7V653.8z M1439,638.7c1.8,0,3.2,1.4,3.2,3.2c0,1.8-1.4,3.2-3.2,3.2
		c-1.8,0-3.2-1.4-3.2-3.2C1435.8,640.1,1437.2,638.7,1439,638.7z"/>
	<path d="M1446,637.8h8.9v37.4h3.8v1.1H1446v-1.1h3.5V639h-3.5V637.8z M1473.2,675.2v1.1h-12.4v-1.1h2.9l-8.2-11l9.7-9.2h-5.7v-1.1
		h11.6v1.1h-3.9l-7.3,6.8l10.7,13.4H1473.2z"/>
	<path d="M1496.3,674.4l0.7,0.8c-1.2,1.2-2.6,1.8-4.1,1.8c-2.8,0-4.4-1.5-4.7-4.5c-1.5,3-3.9,4.5-7.3,4.5c-3.4,0-6.2-2-6.2-5.3
		c0-2.9,1.6-5,4.9-6.3c2.3-0.9,5.2-1.4,8.7-1.4v-5.5c0-2.8-1.3-4.1-3.8-4.1c-0.8,0-1.6,0.2-2.6,0.6c-1.3,0.5-1.9,1-1.9,1.7
		c0,0.4,1.1,1.7,1.1,2.6c0,1.3-1.2,2.3-2.5,2.3c-1.4,0-2.4-1.1-2.4-2.6c0-1.8,1.1-3.3,3.3-4.4c1.8-0.9,3.7-1.4,5.7-1.4
		c2.9,0,5.1,0.7,6.5,2.2c1,1,1.5,2.9,1.5,5.5v11.4c0,1,0,1.7,0.1,2c0.2,0.8,0.6,1.2,1.2,1.2C1495,675.4,1495.6,675.1,1496.3,674.4z
		 M1488.3,664.9c-5.6,0.1-8.5,2-8.5,5.8c0,2.2,1.3,3.8,3.4,3.8c3.3,0,5-2.6,5-7.6V664.9z"/>
</g>
</svg>
